<svg width="65" height="64" viewBox="0 0 65 64" fill="none" xmlns="http://www.w3.org/2000/svg">
<rect x="0.296875" width="64" height="64" rx="11.811" fill="#EB753B"/>
<path d="M19.0215 32.8767L19.0215 29.5832L42.4882 29.5832V32.8767L19.0215 32.8767Z" fill="white"/>
<path d="M28.9021 20.8003H32.6073V41.6596H28.9021V20.8003Z" fill="white"/>
<path fill-rule="evenodd" clip-rule="evenodd" d="M28.9021 20.8003H35.2147V29.5832L45.0956 29.5832V35.4841H35.2147V44.267H28.9021V35.4841H19.0215L19.0215 29.5832L28.9021 29.5832V20.8003ZM28.9021 32.1906L21.6289 32.1906V32.8767H28.9021V32.1906ZM31.5095 32.8767V32.1906H32.6073V32.8767L31.5095 32.8767ZM31.5095 35.4841V41.6596H32.6073V35.4841L31.5095 35.4841ZM35.2147 32.8767H42.4882V32.1906L35.2147 32.1906V32.8767ZM32.6073 29.5832H31.5095V23.4077H32.6073V29.5832Z" fill="white"/>
</svg>
