<svg width="174" height="40" viewBox="0 0 174 40" fill="none" xmlns="http://www.w3.org/2000/svg">
<rect x="146.879" width="26.6667" height="40" rx="10" fill="#EB753B"/>
<path d="M152.879 20.5478C152.327 20.5478 151.879 20.1001 151.879 19.5478L151.879 19.4893C151.879 18.937 152.326 18.4893 152.879 18.4893L165.545 18.4893C166.098 18.4893 166.545 18.937 166.545 19.4893V19.5478C166.545 20.1001 166.098 20.5478 165.545 20.5478L152.879 20.5478Z" fill="white"/>
<path d="M158.054 14C158.054 13.4477 158.502 13 159.054 13H159.37C159.922 13 160.37 13.4477 160.37 14V25.037C160.37 25.5893 159.922 26.037 159.37 26.037H159.054C158.502 26.037 158.054 25.5893 158.054 25.037V14Z" fill="white"/>
<path fill-rule="evenodd" clip-rule="evenodd" d="M158.054 14C158.054 13.4477 158.502 13 159.054 13H161C161.552 13 162 13.4477 162 14V17.4893C162 18.0416 162.447 18.4893 163 18.4893L167.175 18.4893C167.727 18.4893 168.175 18.937 168.175 19.4893V21.1774C168.175 21.7297 167.727 22.1774 167.175 22.1774H163C162.447 22.1774 162 22.6251 162 23.1774V26.6667C162 27.219 161.552 27.6667 161 27.6667H159.054C158.502 27.6667 158.054 27.2189 158.054 26.6667V23.1774C158.054 22.6251 157.606 22.1774 157.054 22.1774H152.879C152.326 22.1774 151.879 21.7297 151.879 21.1774L151.879 19.4893C151.879 18.937 152.326 18.4893 152.879 18.4893L157.054 18.4893C157.606 18.4893 158.054 18.0416 158.054 17.4893V14ZM158.054 20.3333C158.054 20.2149 157.958 20.1189 157.84 20.1189L153.723 20.1189C153.604 20.1189 153.508 20.2149 153.508 20.3333V20.3333C153.508 20.4518 153.604 20.5478 153.723 20.5478H157.84C157.958 20.5478 158.054 20.4518 158.054 20.3333V20.3333ZM159.898 20.5478C159.78 20.5478 159.684 20.4518 159.684 20.3333V20.3333C159.684 20.2149 159.78 20.1189 159.898 20.1189H160.156C160.274 20.1189 160.37 20.2149 160.37 20.3333V20.3333C160.37 20.4518 160.274 20.5478 160.156 20.5478L159.898 20.5478ZM160.027 22.1774C159.837 22.1774 159.684 22.331 159.684 22.5205V25.694C159.684 25.8834 159.837 26.037 160.027 26.037V26.037C160.216 26.037 160.37 25.8834 160.37 25.694V22.5205C160.37 22.331 160.216 22.1774 160.027 22.1774V22.1774ZM162 20.3333C162 20.4518 162.096 20.5478 162.214 20.5478H166.331C166.449 20.5478 166.545 20.4518 166.545 20.3333V20.3333C166.545 20.2149 166.449 20.1189 166.331 20.1189L162.214 20.1189C162.096 20.1189 162 20.2149 162 20.3333V20.3333ZM160.37 18.1462C160.37 18.3357 160.216 18.4893 160.027 18.4893V18.4893C159.837 18.4893 159.684 18.3357 159.684 18.1462V14.9727C159.684 14.7832 159.837 14.6296 160.027 14.6296V14.6296C160.216 14.6296 160.37 14.7832 160.37 14.9727V18.1462Z" fill="white"/>
<path d="M118.537 37.9202V33.2302H127.59V7.16264H118.537V2.47266H141.66V7.16264H132.607V33.2302H141.66V37.9202H118.537Z" fill="white"/>
<path d="M89.0665 37.9202V2.47266H101.773C105.372 2.47266 108.099 3.34521 109.953 5.09032C111.844 6.79907 112.789 9.30767 112.789 12.6161C112.789 18.215 110.208 21.5053 105.045 22.4869L114.152 37.9202H108.317L99.5372 22.8141H94.0837V37.9202H89.0665ZM94.0837 18.1241H101.228C103.518 18.1241 105.154 17.706 106.136 16.8698C107.154 15.9972 107.663 14.5793 107.663 12.6161C107.663 10.6892 107.154 9.30767 106.136 8.47147C105.154 7.59891 103.518 7.16264 101.228 7.16264H94.0837V18.1241Z" fill="white"/>
<path d="M71.3754 38.5745C67.1217 38.5745 63.7951 36.9567 61.3956 33.7209C59.0324 30.4489 57.8508 25.9407 57.8508 20.1964C57.8508 14.2339 59.0869 9.68935 61.5592 6.56269C64.0678 3.39968 67.6852 1.81818 72.4116 1.81818C74.3748 1.81818 76.1381 2.10903 77.7014 2.69073C79.3011 3.27243 80.8463 4.19952 82.3369 5.472L79.7192 9.45303C77.5378 7.52614 75.1201 6.56269 72.4661 6.56269C66.1401 6.56269 62.9771 11.1072 62.9771 20.1964C62.9771 29.2855 66.0674 33.83 72.248 33.83C74.5021 33.83 76.5017 33.0665 78.2468 31.5396V22.5959H71.539V17.9604H83.264V37.9201H79.9919L79.5011 35.3025C78.3013 36.4295 77.047 37.2657 75.7382 37.811C74.4294 38.32 72.9751 38.5745 71.3754 38.5745Z" fill="white"/>
<path d="M41.1954 38.5745C36.7599 38.5745 33.3969 37.0294 31.1065 33.9391C28.8524 30.8124 27.7253 26.2315 27.7253 20.1964C27.7253 14.1248 28.8524 9.54392 31.1065 6.45362C33.3969 3.36333 36.7599 1.81818 41.1954 1.81818C45.6309 1.81818 48.9757 3.36333 51.2298 6.45362C53.5202 9.54392 54.6655 14.1248 54.6655 20.1964C54.6655 26.2315 53.5202 30.8124 51.2298 33.9391C48.9757 37.0294 45.6309 38.5745 41.1954 38.5745ZM41.1954 33.83C46.7579 33.83 49.5392 29.2855 49.5392 20.1964C49.5392 11.1072 46.7579 6.56269 41.1954 6.56269C35.6329 6.56269 32.8516 11.1072 32.8516 20.1964C32.8516 29.2855 35.6329 33.83 41.1954 33.83Z" fill="white"/>
<path d="M0 37.9202V2.47266H9.05275C19.4143 2.47266 24.5951 8.38058 24.5951 20.1964C24.5951 32.0123 19.4871 37.9202 9.27089 37.9202H0ZM5.01719 33.2302H8.72554C12.4339 33.2302 15.1425 32.1759 16.8512 30.0672C18.5963 27.9585 19.4689 24.6683 19.4689 20.1964C19.4689 15.7246 18.5963 12.4343 16.8512 10.3256C15.1425 8.21697 12.4339 7.16264 8.72554 7.16264H5.01719V33.2302Z" fill="white"/>
</svg>
